<svg width="150" height="30" viewBox="0 0 150 30" fill="none" xmlns="http://www.w3.org/2000/svg">
<g clip-path="url(#clip0)">
<path d="M66.4488 13.0873V9.00977H64.1367V24.2785H66.4488V15.9116C66.4488 12.8808 67.7676 11.5869 70.8592 11.5869H72.1709V9.00977H71.0552C68.5197 9.00977 67.0501 10.308 66.4488 13.0873Z" fill="white"/>
<path d="M108.113 9.00977L104.572 22.2088L101.049 9.00977H98.1369L94.585 22.2106L90.9532 9.00977H88.4141L93.0125 24.2308L93.0276 24.2803H96.0235L99.5178 11.1624L103.073 24.2803H106.069L110.621 9.00977H108.113Z" fill="white"/>
<path d="M118.92 8.64844C114.23 8.64844 111.199 11.7675 111.199 16.5917C111.199 19.0312 111.909 21.0638 113.239 22.4671C114.587 23.8845 116.551 24.633 118.915 24.633C123.678 24.633 126.636 21.5519 126.636 16.5917C126.645 11.7693 123.611 8.64844 118.92 8.64844ZM124.299 16.5599C124.299 20.2059 122.225 22.4733 118.889 22.4733C115.554 22.4733 113.543 20.2668 113.543 16.5599C113.543 13.0155 115.604 10.8125 118.922 10.8125C122.24 10.8125 124.299 13.0172 124.299 16.5617V16.5599Z" fill="white"/>
<path d="M130.691 13.0873V9.00977H128.379V24.2785H130.691V15.9116C130.691 12.8808 132.01 11.5869 135.101 11.5869H136.413V9.00977H135.297C132.765 9.00977 131.29 10.308 130.691 13.0873Z" fill="white"/>
<path d="M142.574 16.6277L149.379 9.01013H146.721L140.461 15.7628V5.36328H138.148V24.2806H140.461V17.4106L147.258 24.2568L147.278 24.2806H150L142.574 16.6277Z" fill="white"/>
<path d="M80.2934 8.64844C77.3978 8.64844 75.0999 9.88406 73.8192 12.1285C73.2791 13.0781 72.9385 14.1867 72.8082 15.4258C72.767 15.8134 72.7463 16.2029 72.7461 16.5926C72.7461 16.838 72.755 17.0921 72.7745 17.3922C72.8685 18.8423 73.2179 20.1177 73.813 21.1873C75.0546 23.4123 77.3605 24.6383 80.2872 24.6383C83.362 24.6383 86.0138 23.3144 87.2048 21.1873L87.2306 21.1423L85.6838 19.5616C84.6639 21.6013 82.641 22.4168 80.2633 22.4168C77.3091 22.4168 75.4457 20.6119 75.1415 17.4611H87.8017L87.8061 17.3966C87.8248 17.1169 87.8336 16.8556 87.8336 16.597C87.8331 16.2073 87.8124 15.8178 87.7715 15.4302C87.3361 11.2477 84.4688 8.64844 80.2934 8.64844ZM85.4071 15.3667H75.1797C75.5903 12.5504 77.4962 10.8726 80.2934 10.8726C83.0906 10.8726 84.9956 12.5504 85.4071 15.3667Z" fill="white"/>
<path d="M54.6782 8.64844C49.9884 8.64844 46.957 11.7675 46.957 16.5917C46.957 19.0312 47.6665 21.0638 48.9968 22.4671C50.3449 23.8845 52.3084 24.633 54.6729 24.633C59.4354 24.633 62.394 21.5519 62.394 16.5917C62.3993 11.7693 59.3689 8.64844 54.6782 8.64844ZM49.3002 16.5599C49.3002 13.0155 51.3604 10.8125 54.6782 10.8125C57.996 10.8125 60.0571 13.019 60.0571 16.5599C60.0571 20.2059 57.9836 22.4733 54.6471 22.4733C51.3107 22.4733 49.3002 20.2624 49.3002 16.5617V16.5599Z" fill="white"/>
<path d="M40.1811 7.7092C42.3345 7.7092 44.3184 8.68004 45.5192 10.1416V6.84338L45.466 6.80896C43.9841 5.84959 42.2165 5.36328 40.2122 5.36328C34.5787 5.36328 30.6445 9.31374 30.6445 14.9702C30.6445 20.662 34.5663 24.6381 40.1811 24.6381C42.1899 24.6381 43.9681 24.1341 45.4669 23.1377L45.5192 23.1024V19.8589C44.314 21.3425 42.3265 22.3257 40.1811 22.3257C35.9188 22.3257 33.165 19.4758 33.165 14.9738C33.165 10.5229 35.9197 7.7092 40.1811 7.7092Z" fill="white"/>
<path d="M5.02445 14.9998L0 20L2.51223 22.5001L7.53668 17.4999L5.02445 14.9998Z" fill="#00CFE9"/>
<path d="M7.53906 12.5001L20.099 0L22.6115 2.50037L10.0507 14.9996" fill="#00CFE9"/>
<path d="M2.51223 7.49992L0 10L5.02445 15.0002L7.53668 12.5001L2.51223 7.49992Z" fill="white"/>
<path d="M10.0474 14.9999L7.53516 17.5L20.0957 29.9998L22.6079 27.4997L10.0474 14.9999Z" fill="white"/>
</g>
<defs>
<clipPath id="clip0">
<rect width="150" height="30" fill="white"/>
</clipPath>
</defs>
</svg>
